<svg width="20" height="20" viewBox="0 0 20 20" fill="none" xmlns="http://www.w3.org/2000/svg">
<path d="M10 0.400024C4.69802 0.400024 0.400024 4.69802 0.400024 10C0.400024 15.302 4.69802 19.6 10 19.6C15.302 19.6 19.6 15.302 19.6 10C19.6 4.69802 15.302 0.400024 10 0.400024ZM13.692 11.231C13.692 11.231 14.541 12.069 14.75 12.458C14.756 12.466 14.759 12.474 14.761 12.478C14.846 12.621 14.866 12.732 14.824 12.815C14.754 12.953 14.514 13.021 14.432 13.027H12.932C12.828 13.027 12.61 13 12.346 12.818C12.143 12.676 11.943 12.443 11.748 12.216C11.457 11.878 11.205 11.586 10.951 11.586C10.9188 11.586 10.8867 11.591 10.856 11.601C10.664 11.663 10.418 11.937 10.418 12.667C10.418 12.895 10.238 13.026 10.111 13.026H9.42402C9.19002 13.026 7.97102 12.944 6.89102 11.805C5.56902 10.41 4.37902 7.61202 4.36902 7.58602C4.29402 7.40502 4.44902 7.30802 4.61802 7.30802H6.13302C6.33502 7.30802 6.40102 7.43102 6.44702 7.54002C6.50102 7.66702 6.69902 8.17202 7.02402 8.74002C7.55102 9.66602 7.87402 10.042 8.13302 10.042C8.18159 10.0415 8.22929 10.0291 8.27202 10.006C8.61002 9.81802 8.54702 8.61302 8.53202 8.36302C8.53202 8.31602 8.53102 7.82402 8.35802 7.58802C8.23402 7.41702 8.02302 7.35202 7.89502 7.32802C7.94683 7.25654 8.01509 7.19857 8.09402 7.15902C8.32602 7.04302 8.74403 7.02602 9.15903 7.02602H9.39003C9.84003 7.03202 9.95603 7.06102 10.119 7.10202C10.449 7.18102 10.456 7.39402 10.427 8.12302C10.418 8.33002 10.409 8.56402 10.409 8.84002C10.409 8.90002 10.406 8.96402 10.406 9.03202C10.396 9.40302 10.384 9.82402 10.646 9.99702C10.6802 10.0185 10.7197 10.0299 10.76 10.03C10.851 10.03 11.125 10.03 11.867 8.75702C12.0959 8.34728 12.2947 7.9215 12.462 7.48302C12.477 7.45702 12.521 7.37702 12.573 7.34602C12.6114 7.32646 12.654 7.31651 12.697 7.31702H14.478C14.672 7.31702 14.805 7.34602 14.83 7.42102C14.874 7.54002 14.822 7.90302 14.009 9.00402L13.646 9.48302C12.909 10.449 12.909 10.498 13.692 11.231V11.231Z" fill="white"/>
</svg>
