<svg width="63" height="62" viewBox="0 0 63 62" fill="none" xmlns="http://www.w3.org/2000/svg">
<path fill-rule="evenodd" clip-rule="evenodd" d="M23.3188 5.71464C23.3188 4.6563 22.4608 3.79834 21.4025 3.79834C20.3441 3.79834 19.4862 4.6563 19.4862 5.71464V9.54691H18.8457C13.2012 9.54691 8.62543 14.1227 8.62543 19.7672V21.6838H54.6166H54.6167V19.7672C54.6167 14.1227 50.041 9.54691 44.3964 9.54691H43.758V5.71464C43.758 4.6563 42.9 3.79834 41.8417 3.79834C40.7833 3.79834 39.9254 4.6563 39.9254 5.71464V9.54691H23.3188V5.71464ZM54.6166 25.5164H54.6167V46.5954C54.6167 52.24 50.0409 56.8157 44.3964 56.8157H18.8457C13.2012 56.8157 8.62543 52.24 8.62543 46.5954V25.5164H54.6166ZM31.6245 41.4859C33.0356 41.4859 34.1796 40.342 34.1796 38.9308C34.1796 37.5197 33.0356 36.3758 31.6245 36.3758C30.2134 36.3758 29.0694 37.5197 29.0694 38.9308C29.0694 40.342 30.2134 41.4859 31.6245 41.4859ZM44.3992 38.9308C44.3992 40.342 43.2552 41.4859 41.8441 41.4859C40.433 41.4859 39.289 40.342 39.289 38.9308C39.289 37.5197 40.433 36.3758 41.8441 36.3758C43.2552 36.3758 44.3992 37.5197 44.3992 38.9308ZM21.4025 41.4859C22.8136 41.4859 23.9575 40.342 23.9575 38.9308C23.9575 37.5197 22.8136 36.3758 21.4025 36.3758C19.9913 36.3758 18.8474 37.5197 18.8474 38.9308C18.8474 40.342 19.9913 41.4859 21.4025 41.4859Z" fill="#174C6B"/>
</svg>
