<svg width="62" height="63" viewBox="0 0 62 63" fill="none" xmlns="http://www.w3.org/2000/svg">
<path fill-rule="evenodd" clip-rule="evenodd" d="M32.8105 6.03593C32.8105 4.97759 31.9525 4.11963 30.8941 4.11963C29.8358 4.11963 28.9778 4.97759 28.9778 6.03593V10.2485L15.6364 21.3664H15.5637C9.91916 21.3664 5.34338 25.9421 5.34338 31.5867V46.9171C5.34338 52.5616 9.91916 57.1374 15.5637 57.1374H46.2245C51.869 57.1374 56.4448 52.5616 56.4448 46.9171V31.5867C56.4448 25.9421 51.869 21.3664 46.2245 21.3664H46.1519L32.8105 10.2485V6.03593ZM40.1651 21.3664L30.8941 13.6405L21.6232 21.3664H40.1651ZM30.8941 29.6703C31.9524 29.6703 32.8104 30.5283 32.8104 31.5867V46.9171C32.8104 47.9754 31.9524 48.8334 30.8941 48.8334C29.8358 48.8334 28.9778 47.9754 28.9778 46.9171V31.5867C28.9778 30.5283 29.8358 29.6703 30.8941 29.6703ZM20.035 31.5867C20.035 30.5283 19.1771 29.6703 18.1187 29.6703C17.0604 29.6703 16.2024 30.5283 16.2024 31.5867V46.9171C16.2024 47.9754 17.0604 48.8334 18.1187 48.8334C19.1771 48.8334 20.035 47.9754 20.035 46.9171V31.5867ZM43.6695 29.6703C44.7278 29.6703 45.5858 30.5283 45.5858 31.5867V46.9171C45.5858 47.9754 44.7278 48.8334 43.6695 48.8334C42.6111 48.8334 41.7532 47.9754 41.7532 46.9171V31.5867C41.7532 30.5283 42.6111 29.6703 43.6695 29.6703Z" fill="#174C6B"/>
</svg>
