<svg width="62" height="63" viewBox="0 0 62 63" fill="none" xmlns="http://www.w3.org/2000/svg">
<path fill-rule="evenodd" clip-rule="evenodd" d="M56.3096 31.5864C56.3096 45.6976 44.8701 57.1371 30.7588 57.1371C16.6476 57.1371 5.20813 45.6976 5.20813 31.5864C5.20813 17.4751 16.6476 6.03564 30.7588 6.03564C44.8701 6.03564 56.3096 17.4751 56.3096 31.5864ZM30.7141 29.6702C28.9713 29.6457 27.5661 28.2253 27.5661 26.4766C27.5661 24.7127 28.996 23.2828 30.7599 23.2828C32.5238 23.2828 33.9538 24.7127 33.9538 26.4766C33.9538 27.535 34.8117 28.3929 35.8701 28.3929C36.9284 28.3929 37.7864 27.535 37.7864 26.4766C37.7864 23.2602 35.6253 20.5486 32.6759 19.7146V17.5335C32.6759 16.4751 31.8179 15.6172 30.7596 15.6172C29.7012 15.6172 28.8433 16.4751 28.8433 17.5335V19.7148C25.8943 20.549 23.7335 23.2605 23.7335 26.4766C23.7335 30.3572 26.8793 33.5031 30.7599 33.5031C30.7752 33.5031 30.7905 33.5029 30.8057 33.5025C32.5485 33.527 33.9538 34.9474 33.9538 36.6961C33.9538 38.46 32.5238 39.8899 30.7599 39.8899C28.996 39.8899 27.5661 38.46 27.5661 36.6961C27.5661 35.6377 26.7081 34.7798 25.6498 34.7798C24.5914 34.7798 23.7335 35.6377 23.7335 36.6961C23.7335 39.9122 25.8943 42.6237 28.8433 43.4579V45.6388C28.8433 46.6972 29.7012 47.5551 30.7596 47.5551C31.8179 47.5551 32.6759 46.6972 32.6759 45.6388V43.4581C35.6253 42.6241 37.7864 39.9124 37.7864 36.6961C37.7864 32.8155 34.6405 29.6696 30.7599 29.6696C30.7446 29.6696 30.7293 29.6698 30.7141 29.6702Z" fill="#174C6B"/>
</svg>
