<svg width="63" height="63" viewBox="0 0 63 63" fill="none" xmlns="http://www.w3.org/2000/svg">
<path fill-rule="evenodd" clip-rule="evenodd" d="M56.9255 18.585C56.9255 12.9405 52.3498 8.36475 46.7052 8.36475H16.0444C10.3999 8.36475 5.8241 12.9405 5.8241 18.585V22.418H16.0441C20.9831 22.418 24.9869 26.4218 24.9869 31.3608C24.9869 36.2997 20.9831 40.3035 16.0441 40.3035H5.8241V44.1358C5.8241 49.7803 10.3999 54.356 16.0444 54.356H33.9299C35.341 54.356 36.485 53.2121 36.485 51.801V49.2459C36.485 43.6014 41.0607 39.0256 46.7052 39.0256H54.3705C55.7816 39.0256 56.9255 37.8817 56.9255 36.4705V18.585ZM21.154 31.3606C21.154 28.5383 18.8661 26.2504 16.0438 26.2504H5.82353V36.4707H16.0438C18.8661 36.4707 21.154 34.1828 21.154 31.3606ZM58.1855 42.6939C58.982 43.3908 59.0627 44.6015 58.3658 45.398L51.033 53.7783C49.4573 55.5791 46.7432 55.8203 44.8747 54.3255L40.3961 50.7426C39.5697 50.0815 39.4357 48.8755 40.0968 48.0491C40.758 47.2227 41.9639 47.0887 42.7903 47.7498L47.2689 51.3327C47.5358 51.5462 47.9235 51.5118 48.1486 51.2545L55.4815 42.8742C56.1784 42.0777 57.389 41.997 58.1855 42.6939Z" fill="#174C6B"/>
</svg>
